<svg width="854" height="116" viewBox="0 0 854 116" fill="none" xmlns="http://www.w3.org/2000/svg">
<path d="M854 2.18073V25.231H820.417V113.921H794.466V25.231H760.883V2.18073H854Z" fill="black"/>
<path d="M712.7 56.317L754 114H721.605L696.579 77.5847L671.092 114H641L682.3 56.929L642.996 2H675.084L698.268 35.6612L721.758 2H752.004L712.7 56.317Z" fill="black"/>
<path d="M583.466 68.8892V91.3289H633.994V113.921H557.363V2.18073H632.162V24.6204H583.466V46.6022H627.124V68.8892H583.466Z" fill="black"/>
<path d="M550.094 2.18073V25.231H516.51V113.921H490.56V25.231H456.977V2.18073H550.094Z" fill="black"/>
<path d="M425.894 69.9578V2.18073H449.708V113.921H428.794L378.114 45.9916V113.921H354.301V2.18073H375.214L425.894 69.9578Z" fill="black"/>
<path d="M237.733 57.8548C237.733 46.0497 240.125 35.7712 244.908 27.0192C249.793 18.2672 256.408 11.6015 264.753 7.02195C273.098 2.34065 282.307 0 292.382 0C302.457 0 311.617 2.34065 319.86 7.02195C328.205 11.6015 334.819 18.2672 339.704 27.0192C344.589 35.7712 347.032 46.0497 347.032 57.8548C347.032 69.7615 344.589 80.0909 339.704 88.8429C334.819 97.5949 328.205 104.312 319.86 108.993C311.617 113.572 302.457 115.862 292.382 115.862C282.307 115.862 273.098 113.572 264.753 108.993C256.408 104.413 249.793 97.7476 244.908 88.9956C240.125 80.1418 237.733 69.7615 237.733 57.8548ZM265.363 57.8548C265.363 64.6732 266.483 70.6774 268.722 75.8676C270.96 81.0577 274.166 85.0775 278.339 87.927C282.511 90.6747 287.192 92.0486 292.382 92.0486C297.674 92.0486 302.356 90.6747 306.426 87.927C310.599 85.0775 313.804 81.0577 316.043 75.8676C318.384 70.6774 319.554 64.6732 319.554 57.8548C319.554 51.1381 318.384 45.2356 316.043 40.1472C313.804 34.9571 310.599 30.9882 306.426 28.2404C302.356 25.391 297.674 23.9662 292.382 23.9662C287.192 23.9662 282.511 25.3401 278.339 28.0878C274.166 30.8355 270.96 34.8044 268.722 39.9946C266.483 45.0829 265.363 51.0363 265.363 57.8548Z" fill="black"/>
<path d="M186.654 91.8959C191.742 91.8959 196.118 90.5221 199.782 87.7744C203.445 85.0266 206.396 81.1086 208.635 76.0202L230.464 88.8429C228.836 93.7278 226.037 98.2055 222.069 102.276C218.201 106.347 213.266 109.654 207.261 112.199C201.257 114.641 194.591 115.862 187.264 115.862C177.189 115.862 167.979 113.471 159.634 108.688C151.289 103.904 144.674 97.137 139.79 88.385C134.905 79.5312 132.462 69.3545 132.462 57.8548C132.462 46.355 134.905 36.2292 139.79 27.4772C144.674 18.6234 151.289 11.8559 159.634 7.1746C167.979 2.39153 177.189 0 187.264 0C194.591 0 201.257 1.27209 207.261 3.81628C213.266 6.2587 218.201 9.51525 222.069 13.586C226.037 17.6566 228.836 22.1344 230.464 27.0192L208.635 39.8419C206.396 34.7536 203.445 30.8355 199.782 28.0878C196.118 25.3401 191.742 23.9662 186.654 23.9662C181.769 23.9662 177.24 25.3401 173.068 28.0878C168.997 30.7338 165.791 34.6518 163.451 39.8419C161.11 44.9303 159.94 50.9346 159.94 57.8548C159.94 64.7749 161.11 70.8301 163.451 76.0202C165.791 81.2104 168.997 85.1793 173.068 87.927C177.24 90.573 181.769 91.8959 186.654 91.8959Z" fill="black"/>
<path d="M139.566 114.125H120.575L74.2891 22.0001H64.0303L18.9922 114.125H0L54.7285 2.18073H83.3232L139.566 114.125Z" fill="black"/>
<path d="M96.3888 80.687L113.203 114.125H101.572L89.8758 90.8637H49.1717L37.7995 114.125H26.1689L42.5166 80.687H96.3888ZM75.0671 37.8958L59.1219 70.5102H47.4921L69.1702 26.1687L75.0671 37.8958Z" fill="black"/>
</svg>
