<svg xmlns="http://www.w3.org/2000/svg" viewBox="0 0 920 340" fill="none">
  <defs>
    <linearGradient id="cardBg" x1="0" y1="0" x2="0" y2="1">
      <stop offset="0%" stop-color="#1E293B" stop-opacity="0.95"/>
      <stop offset="100%" stop-color="#0F172A" stop-opacity="0.95"/>
    </linearGradient>
    <marker id="arrowGray" markerWidth="8" markerHeight="6" refX="8" refY="3" orient="auto">
      <path d="M0,0 L8,3 L0,6" fill="#94A3B8"/>
    </marker>
    <marker id="arrowGreen" markerWidth="8" markerHeight="6" refX="8" refY="3" orient="auto">
      <path d="M0,0 L8,3 L0,6" fill="#3ECF8E"/>
    </marker>
  </defs>
  <style>
    text { font-family: Inter, -apple-system, BlinkMacSystemFont, sans-serif; }
  </style>

  <!-- CARD 1: SESSION STORAGE -->
  <rect x="30" y="30" width="240" height="200" rx="12" fill="url(#cardBg)" stroke="#334155" stroke-width="1"/>
  <rect x="52" y="52" width="26" height="26" rx="6" fill="#3B82F6" fill-opacity="0.15"/>
  <path d="M60,60 h10 M60,65 h10 M60,70 h7" stroke="#3B82F6" stroke-width="1.5" stroke-linecap="round"/>
  <text x="86" y="64" fill="#E2E8F0" font-size="13" font-weight="700">Session Storage</text>
  <text x="86" y="78" fill="#3B82F6" font-size="10" font-weight="600" letter-spacing="1">STORE</text>
  <line x1="48" y1="92" x2="252" y2="92" stroke="#334155" stroke-width="1"/>
  <circle cx="58" cy="114" r="2.5" fill="#3B82F6"/>
  <text x="68" y="118" fill="#CBD5E1" font-size="12">Messages</text>
  <circle cx="58" cy="142" r="2.5" fill="#3B82F6"/>
  <text x="68" y="146" fill="#CBD5E1" font-size="12">Files and Artifacts</text>
  <circle cx="58" cy="170" r="2.5" fill="#3B82F6"/>
  <text x="68" y="174" fill="#CBD5E1" font-size="12">Skills (injected)</text>

  <!-- CARD 2: TASK TRACKING -->
  <rect x="340" y="30" width="240" height="200" rx="12" fill="url(#cardBg)" stroke="#334155" stroke-width="1"/>
  <rect x="362" y="52" width="26" height="26" rx="6" fill="#F59E0B" fill-opacity="0.15"/>
  <circle cx="375" cy="65" r="5.5" stroke="#F59E0B" stroke-width="1.5" fill="none"/>
  <circle cx="375" cy="65" r="1.8" fill="#F59E0B"/>
  <text x="396" y="64" fill="#E2E8F0" font-size="13" font-weight="700">Task Tracking</text>
  <text x="396" y="78" fill="#F59E0B" font-size="10" font-weight="600" letter-spacing="1">TRACK</text>
  <line x1="358" y1="92" x2="562" y2="92" stroke="#334155" stroke-width="1"/>
  <circle cx="368" cy="114" r="2.5" fill="#F59E0B"/>
  <text x="378" y="118" fill="#CBD5E1" font-size="12">Tasks</text>
  <circle cx="368" cy="142" r="2.5" fill="#F59E0B"/>
  <text x="378" y="146" fill="#CBD5E1" font-size="12">Progress</text>
  <circle cx="368" cy="170" r="2.5" fill="#F59E0B"/>
  <text x="378" y="174" fill="#CBD5E1" font-size="12">Summaries</text>

  <!-- CARD 3: SKILL MEMORY -->
  <rect x="650" y="30" width="240" height="200" rx="12" fill="url(#cardBg)" stroke="#334155" stroke-width="1"/>
  <rect x="672" y="52" width="26" height="26" rx="6" fill="#3ECF8E" fill-opacity="0.15"/>
  <path d="M680,68 Q685,56 690,68" stroke="#3ECF8E" stroke-width="1.5" fill="none" stroke-linecap="round"/>
  <path d="M683,72 Q685,65 687,72" stroke="#3ECF8E" stroke-width="1.2" fill="none" stroke-linecap="round"/>
  <text x="706" y="64" fill="#E2E8F0" font-size="13" font-weight="700">Skill Memory</text>
  <text x="706" y="78" fill="#3ECF8E" font-size="10" font-weight="600" letter-spacing="1">LEARN</text>
  <line x1="668" y1="92" x2="872" y2="92" stroke="#334155" stroke-width="1"/>
  <circle cx="678" cy="114" r="2.5" fill="#3ECF8E"/>
  <text x="688" y="118" fill="#CBD5E1" font-size="12">Skill files (.md)</text>
  <circle cx="678" cy="142" r="2.5" fill="#3ECF8E"/>
  <text x="688" y="146" fill="#CBD5E1" font-size="12">Configurable</text>
  <circle cx="678" cy="170" r="2.5" fill="#3ECF8E"/>
  <text x="688" y="174" fill="#CBD5E1" font-size="12">Human-readable</text>

  <!-- FORWARD ARROWS -->
  <line x1="272" y1="130" x2="335" y2="130" stroke="#94A3B8" stroke-width="1.5" marker-end="url(#arrowGray)"/>
  <text x="303" y="122" fill="#94A3B8" font-size="8" font-weight="500" text-anchor="middle">auto-extract</text>
  <line x1="582" y1="130" x2="645" y2="130" stroke="#94A3B8" stroke-width="1.5" marker-end="url(#arrowGray)"/>
  <text x="613" y="122" fill="#94A3B8" font-size="8" font-weight="500" text-anchor="middle">distill skills</text>

  <!-- FEEDBACK LOOP ARC -->
  <path d="M770,232 L770,275 Q770,300 745,300 L175,300 Q150,300 150,275 L150,232" stroke="#3ECF8E" stroke-width="2" stroke-dasharray="8,4" fill="none" marker-end="url(#arrowGreen)" stroke-opacity="0.7"/>
  <rect x="368" y="287" width="184" height="26" rx="6" fill="#0F172A"/>
  <rect x="370" y="289" width="180" height="22" rx="6" fill="#3ECF8E" fill-opacity="0.1" stroke="#3ECF8E" stroke-opacity="0.25" stroke-width="1"/>
  <text x="460" y="304" fill="#3ECF8E" font-size="10" font-weight="600" text-anchor="middle">Skills injected via Skill Tools</text>
</svg>
